#!OML:ASF F:\VICON\USERDATA\INSTALL\rory3\rory3.ASF
:FULLY-SPECIFIED
:DEGREES
715
root 0.947014 17.6092 -7.94898 11.4054 -17.7594 4.93221
lowerback 14.0422 0.319928 -2.24328
upperback 6.21753 0.244628 6.78043
thorax -1.32091 -0.0359793 8.46202
lowerneck -5.29319 -10.4158 -10.766
upperneck 31.4707 -15.7093 7.45186
head 12.8479 -7.41269 2.59174
rclavicle -4.29375e-014 -9.70069e-014
rhumerus 10.0883 -10.4606 -85.3921
rradius 34.2258
rwrist -12.2009
rhand -18.5755 -21.5994
rfingers 7.12502
rthumb 7.71493 -51.4387
lclavicle -4.29375e-014 -9.70069e-014
lhumerus -1.9395 -67.3548 90.5391
lradius 72.1727
lwrist 74.9882
lhand -14.0223 53.9236
lfingers 7.12502
lthumb 12.1076 -276.447
rfemur -43.4176 -3.56816 12.1495
rtibia 31.7069
rfoot -14.2835 -4.58772
rtoes -0.708258
lfemur -21.8127 -0.685018 -29.2186
ltibia 28.8529
lfoot -15.2454 -9.1467
ltoes 0.227654
716
root 0.975954 17.6164 -7.98355 11.3356 -17.5076 4.89377
lowerback 14.1383 0.141723 -2.32012
upperback 6.13153 0.00388455 6.65874
thorax -1.42454 -0.150172 8.41253
lowerneck -5.11276 -10.3105 -10.5979
upperneck 31.3797 -15.6473 7.61652
head 12.7632 -7.3623 2.64893
rclavicle -2.22639e-014 -3.65764e-014
rhumerus 10.0184 -12.5092 -84.4898
rradius 34.5576
rwrist -12.5508
rhand -20.2363 -23.055
rfingers 7.12502
rthumb 6.1117 -52.9469
lclavicle -2.22639e-014 -3.65764e-014
lhumerus 0.262919 -68.5542 89.055
lradius 72.2753
lwrist 74.0893
lhand -12.2598 54.4205
lfingers 7.12502
lthumb 13.8066 -276.058
rfemur -43.2165 -3.73001 12.1696
rtibia 32.2843
rfoot -14.1986 -4.17792
rtoes -1.0215
lfemur -21.8279 -0.867586 -29.16
ltibia 28.7818
lfoot -15.0938 -9.33447
ltoes -1.14292
717
root 1.00606 17.6185 -8.01966 11.4062 -17.2071 4.94742
lowerback 14.0254 -0.233497 -2.60425
upperback 6.04972 -0.522336 6.67299
thorax -1.35861 -0.418007 8.67516
lowerneck -5.06365 -10.048 -10.8102
upperneck 31.3464 -15.223 7.55877
head 12.7026 -7.21493 2.72981
rclavicle -1.74931e-014 3.97569e-014
rhumerus 10.0917 -13.8741 -83.4923
rradius 34.7428
rwrist -13.1613
rhand -22.0555 -23.6577
rfingers 7.12502
rthumb 4.35516 -53.5929
lclavicle -1.74931e-014 3.97569e-014
lhumerus 2.61502 -69.2068 87.3873
lradius 72.494
lwrist 73.7196
lhand -10.4488 54.7209
lfingers 7.12502
lthumb 15.5514 -275.884
rfemur -43.2067 -4.07367 12.1309
rtibia 32.8564
rfoot -14.1466 -3.85528
rtoes -1.37232
lfemur -22.0377 -1.19351 -29.195
ltibia 28.7322
lfoot -14.9498 -9.45376
ltoes -1.48326
718
root 1.03423 17.6193 -8.05096 11.4513 -17.1207 5.05657
lowerback 13.8326 -0.58653 -3.0038
upperback 6.07529 -1.04009 6.70568
thorax -1.12712 -0.693791 9.01835
lowerneck -5.26588 -9.75081 -11.3236
upperneck 31.3625 -14.7366 7.67251
head 12.752 -7.04549 2.91891
rclavicle -9.54166e-015 -1.43125e-014
rhumerus 10.5586 -15.305 -82.6772
rradius 34.6011
rwrist -13.3339
rhand -23.4653 -23.7346
rfingers 7.12502
rthumb 2.99379 -53.6933
lclavicle -9.54166e-015 -1.43125e-014
lhumerus 5.31784 -69.5949 85.364
lradius 72.7497
lwrist 73.6323
lhand -9.26716 54.7327
lfingers 7.12502
lthumb 16.6893 -275.965
rfemur -43.2094 -4.40686 12.0747
rtibia 33.3924
rfoot -14.0397 -3.64838
rtoes -2.05912
lfemur -22.2492 -1.41129 -29.3137
ltibia 28.7391
lfoot -14.8433 -9.5227
ltoes -0.445278
719
root 1.05739 17.6279 -8.08434 11.5283 -17.1431 4.86707
lowerback 13.7883 -0.744323 -3.12735
upperback 6.0908 -1.26481 6.7336
thorax -1.04141 -0.813399 9.15314
lowerneck -5.44624 -9.61132 -11.5829
upperneck 31.4003 -14.539 7.84466
head 12.821 -6.96685 3.04754
rclavicle -3.49861e-014 9.22361e-014
rhumerus 10.996 -17.2577 -81.8985
rradius 34.419
rwrist -13.3465
rhand -24.4673 -23.9871
rfingers 7.12502
rthumb 2.02604 -53.9572
lclavicle -3.49861e-014 9.22361e-014
lhumerus 8.15276 -70.3409 83.1608
lradius 73.0718
lwrist 73.6646
lhand -8.36569 54.7274
lfingers 7.12502
lthumb 17.5569 -276.045
rfemur -43.1008 -4.49475 12.2846
rtibia 33.8833
rfoot -14.1019 -3.65455
rtoes -1.78997
lfemur -22.4496 -1.38029 -29.135
ltibia 28.7859
lfoot -14.7687 -9.66694
ltoes 1.27112
720
root 1.07881 17.6325 -8.11938 11.7072 -17.1017 4.53505
lowerback 13.7796 -0.893794 -3.10234
upperback 6.00566 -1.45452 6.78185
thorax -1.09154 -0.904956 9.22034
lowerneck -5.49044 -9.48425 -11.6675
upperneck 31.459 -14.3594 7.87596
head 12.8425 -6.89666 3.09954
rclavicle -3.49861e-014 -2.38542e-014
rhumerus 11.0353 -18.9034 -80.7918
rradius 34.4346
rwrist -13.8243
rhand -25.4926 -24.1133
rfingers 7.12502
rthumb 1.03579 -54.0906
lclavicle -3.49861e-014 -2.38542e-014
lhumerus 10.4939 -71.0653 81.3574
lradius 73.4253
lwrist 73.6175
lhand -7.61921 54.7531
lfingers 7.12502
lthumb 18.2752 -276.085
rfemur -43.0584 -4.52962 12.6275
rtibia 34.3691
rfoot -14.2204 -3.85977
rtoes -0.798243
lfemur -22.7272 -1.32487 -28.7855
ltibia 28.8423
lfoot -14.7128 -9.96923
ltoes 1.55645
721
root 1.10025 17.6328 -8.15111 11.8402 -17.0847 4.38109
lowerback 13.7618 -1.01202 -3.1409
upperback 5.93746 -1.61317 6.7391
thorax -1.12566 -0.981221 9.2186
lowerneck -5.62842 -9.39786 -11.6018
upperneck 31.5435 -14.2434 7.86617
head 12.8846 -6.83773 3.09704
rclavicle -1.59028e-014 -4.6118e-014
rhumerus 11.0008 -20.5908 -79.65
rradius 34.5363
rwrist -14.3324
rhand -26.524 -24.1466
rfingers 7.12502
rthumb 0.0396516 -54.1263
lclavicle -1.59028e-014 -4.6118e-014
lhumerus 12.8937 -71.8028 79.4038
lradius 73.7592
lwrist 73.6103
lhand -7.0703 54.6395
lfingers 7.12502
lthumb 18.8032 -276.249
rfemur -43.0467 -4.62708 12.7824
rtibia 34.8779
rfoot -14.3321 -4.17044
rtoes -0.43341
lfemur -22.9744 -1.39497 -28.5963
ltibia 28.8893
lfoot -14.6016 -10.2551
ltoes 1.56696
722
root 1.11969 17.6332 -8.18584 11.8361 -17.1026 4.37692
lowerback 13.8848 -0.99334 -3.16838
upperback 5.93226 -1.59495 6.54703
thorax -1.20755 -0.965844 9.02401
lowerneck -5.81439 -9.44103 -11.2419
upperneck 31.5366 -14.363 7.90836
head 12.9051 -6.84017 3.02687
rclavicle -3.26007e-014 2.70347e-014
rhumerus 11.0703 -23.0285 -78.8339
rradius 34.5657
rwrist -14.1783
rhand -27.1699 -24.1351
rfingers 7.12502
rthumb -0.584145 -54.114
lclavicle -3.26007e-014 2.70347e-014
lhumerus 16.0955 -72.8923 76.5504
lradius 74.1473
lwrist 73.5897
lhand -6.50504 54.5413
lfingers 7.12502
lthumb 19.3468 -276.401
rfemur -42.9391 -4.74042 12.779
rtibia 35.434
rfoot -14.434 -4.58173
rtoes -1.74046
lfemur -23.1056 -1.42676 -28.5682
ltibia 28.8714
lfoot -14.3759 -10.4842
ltoes 1.98317
723
root 1.13955 17.6365 -8.21972 11.6928 -16.9997 4.37136
lowerback 14.0949 -1.07934 -3.19324
upperback 6.00818 -1.71713 6.43198
thorax -1.22139 -1.02777 8.93618
lowerneck -6.10977 -9.42677 -11.0114
upperneck 31.5661 -14.3263 7.81011
head 12.9438 -6.79979 2.94253
rclavicle -3.33958e-014 7.79236e-014
rhumerus 11.2317 -25.161 -78.0209
rradius 34.5298
rwrist -13.7338
rhand -27.5432 -24.1085
rfingers 7.12502
rthumb -0.944755 -54.0862
lclavicle -3.33958e-014 7.79236e-014
lhumerus 19.1215 -73.5739 73.8769
lradius 74.5417
lwrist 73.3225
lhand -6.04331 54.4326
lfingers 7.12502
lthumb 19.7907 -276.555
rfemur -42.6361 -4.95036 12.7707
rtibia 36.0026
rfoot -14.5396 -5.09624
rtoes -2.76088
lfemur -23.0498 -1.37568 -28.5544
ltibia 28.8043
lfoot -14.1993 -10.8122
ltoes 2.405
724
root 1.15996 17.6443 -8.24498 11.5313 -16.9088 4.32628
lowerback 14.2611 -1.28556 -3.24398
upperback 6.06503 -1.99883 6.42636
thorax -1.19719 -1.17331 9.00721
lowerneck -6.34702 -9.26502 -11.1232
upperneck 31.6528 -14.0133 7.65934
head 12.988 -6.68628 2.94059
rclavicle -2.8625e-014 6.67916e-014
rhumerus 11.4035 -26.7803 -77.1834
rradius 34.4654
rwrist -12.9113
rhand -27.7604 -24.1338
rfingers 7.12502
rthumb -1.1545 -54.1105
lclavicle -2.8625e-014 6.67916e-014
lhumerus 20.858 -73.7875 72.4267
lradius 74.9518
lwrist 73.1803
lhand -5.98913 54.2088
lfingers 7.12502
lthumb 19.8428 -276.784
rfemur -42.278 -5.2468 12.8203
rtibia 36.5865
rfoot -14.8376 -5.59116
rtoes -1.75203
lfemur -22.9177 -1.45306 -28.4925
ltibia 28.743
lfoot -14.1467 -10.9925
ltoes 2.46217
725
root 1.1784 17.6517 -8.26958 11.5316 -17.0553 4.15797
lowerback 14.3209 -1.41038 -3.25047
upperback 6.01374 -2.16305 6.43306
thorax -1.25342 -1.25295 9.04667
lowerneck -6.29962 -9.07037 -11.3286
upperneck 31.7293 -13.6881 7.58487
head 12.982 -6.58085 2.99976
rclavicle -3.97569e-014 2.70347e-014
rhumerus 11.4902 -28.4515 -76.4286
rradius 34.3464
rwrist -11.524
rhand -27.7947 -24.1236
rfingers 7.12502
rthumb -1.18766 -54.1
lclavicle -3.97569e-014 2.70347e-014
lhumerus 21.5786 -73.9662 71.9192
lradius 75.4099
lwrist 73.5316
lhand -6.11534 54.3227
lfingers 7.12502
lthumb 19.7215 -276.658
rfemur -42.1066 -5.31049 12.947
rtibia 37.1704
rfoot -15.2643 -5.92668
rtoes -0.356752
lfemur -22.9352 -1.41969 -28.3339
ltibia 28.6669
lfoot -14.0892 -11.0153
ltoes 2.56196
726
root 1.20023 17.6536 -8.30117 12.1309 -17.0084 4.16792
lowerback 13.7094 -1.57218 -3.2659
upperback 5.79184 -2.3688 6.402
thorax -1.1254 -1.35224 9.02285
lowerneck -6.31571 -8.94283 -11.5955
upperneck 31.8619 -13.5239 7.74173
head 13.059 -6.52422 3.1306
rclavicle -9.54166e-015 1.59028e-014
rhumerus 11.3598 -29.8263 -75.4617
rradius 34.4602
rwrist -10.9774
rhand -28.3134 -24.1886
rfingers 7.12502
rthumb -1.6886 -54.1617
lclavicle -9.54166e-015 1.59028e-014
lhumerus 22.4168 -74.168 71.3369
lradius 75.844
lwrist 73.9275
lhand -5.78752 54.7935
lfingers 7.12502
lthumb 20.0366 -276.22
rfemur -42.6476 -5.58891 12.9298
rtibia 37.7638
rfoot -15.5881 -6.1903
rtoes 0.437272
lfemur -23.723 -1.54923 -28.3388
ltibia 28.5837
lfoot -13.8228 -11.1533
ltoes 3.10143
